<svg xmlns="http://www.w3.org/2000/svg" width="400" height="407" viewBox="0 0 400 407">
    <path d="M278,28C281.24,31.24 283.06,33.47 285.29,37.31C285.91,38.37 286.54,39.43 287.18,40.53C287.5,41.09 287.83,41.66 288.17,42.24C289.94,45.29 291.73,48.33 293.52,51.38C293.89,52.01 294.26,52.64 294.64,53.29C298.5,59.88 302.46,66.41 306.44,72.94C307.15,74.1 307.86,75.27 308.56,76.43C309.99,78.78 311.42,81.12 312.85,83.46C314.66,86.43 316.46,89.41 318.27,92.38C318.99,93.58 319.72,94.78 320.45,95.97C322.24,98.92 324.02,101.87 325.8,104.83C329.14,110.39 332.56,115.88 336.18,121.27C336.83,122.27 337.49,123.27 338.17,124.3C339.37,126.14 340.61,127.96 341.89,129.75C347.75,138.79 346,142.52 346,155C237.1,155 128.2,155 16,155C16,149.39 16,143.78 16,138C169.95,137.51 169.95,137.51 327,137C322.71,130.07 318.42,123.14 314,116C307.78,105.66 307.78,105.66 305.28,101.46C301.84,95.72 298.37,90 294.89,84.28C293.81,82.5 292.74,80.73 291.66,78.96C288.25,73.34 284.84,67.73 281.41,62.12C279.83,59.56 278.26,56.99 276.7,54.42C275.95,53.19 275.2,51.97 274.44,50.74C273.4,49.04 272.36,47.33 271.32,45.63C270.43,44.18 270.43,44.18 269.52,42.69C268,40 268,40 266,35C271.94,31.53 271.94,31.53 278,28Z" fill="#FFFFFF"/>
    <path d="M41,254C150.23,254 259.46,254 372,254C372,259.28 372,264.56 372,270C269.04,270 166.08,270 60,270C71.94,290.52 71.94,290.52 84.31,310.71C88.71,317.69 92.96,324.77 97.23,331.84C97.97,333.05 98.7,334.27 99.44,335.48C99.81,336.09 100.18,336.7 100.56,337.33C102.91,341.21 105.28,345.08 107.66,348.95C109.25,351.53 110.83,354.11 112.42,356.7C113.18,357.94 113.94,359.17 114.71,360.41C115.77,362.12 116.82,363.84 117.88,365.57C118.48,366.55 119.09,367.52 119.71,368.53C121,371 121,371 121,374C118.66,375.82 118.66,375.82 115.63,377.69C114.63,378.31 113.63,378.93 112.6,379.57C110,381 110,381 108,381C106.85,379.42 106.85,379.42 105.56,377.17C105.07,376.32 104.57,375.48 104.07,374.6C103.53,373.66 102.99,372.72 102.44,371.75C101.26,369.72 100.07,367.68 98.89,365.65C98.26,364.56 97.62,363.48 96.97,362.36C93.63,356.66 90.19,351.02 86.75,345.38C86.03,344.19 85.3,343 84.58,341.81C83.12,339.41 81.65,337 80.19,334.6C76.97,329.31 73.76,324.03 70.55,318.74C69.51,317.01 68.46,315.28 67.41,313.55C64.08,308.08 60.76,302.61 57.45,297.13C55.89,294.55 54.32,291.96 52.76,289.37C52.01,288.14 51.26,286.9 50.52,285.67C49.49,283.95 48.45,282.24 47.41,280.53C46.83,279.56 46.24,278.58 45.63,277.58C44.2,275.31 42.61,273.15 41,271C41,265.39 41,259.78 41,254Z" fill="#FFFFFF"/>
</svg>
